<svg id="Layer_1" data-name="Layer 1" xmlns="http://www.w3.org/2000/svg" viewBox="0 0 488.8 373.96"><defs><style>.cls-1{fill:#1e2225;}.cls-2{fill:#ee1f53;}.cls-3{fill:#010101;}</style></defs><path class="cls-1" d="M158.41.49c3.67-.16,7.35-.44,11-.46q56.67,0,113.34,0c.84,41.73.19,83.47.4,125.21a432.69,432.69,0,0,1,43.52,0c-.05,7.76-.12,15.5.05,23.25a244,244,0,0,0,25.94-.2c0-7.81,0-15.62,0-23.43,2.27,0,4.53-.09,6.82-.1-.1,8,0,15.94,0,23.92,9.15,0,18.29.06,27.44,0,0-7.88,0-15.76,0-23.65,14.6-.48,29.23-.07,43.85-.23.15-28.49-.64-57-.41-85.46.64-13.08.24-26.18.37-39.27,18.89.23,37.81-.41,56.68.37q-.07,150.8,0,301.56-28.31-.09-56.64,0c.24-30.57-.78-61.1-.3-91.66.53-9.78.19-19.58.3-29.38-14.57-2-29.25-.48-43.9-.91.09-7.61.05-15.23,0-22.84-9.14.09-18.29.09-27.43.06,0,7.58.1,15.18-.17,22.77l-6.63,0c.07-7.63,0-15.26,0-22.87-8.66.11-17.31.06-26,0-.05,7.6-.08,15.2,0,22.8q-21.76.08-43.51,0c-.21,31,.43,62-.44,93-38.85-84.42-77.31-169-116-253.5C163.75,13.26,160.88,7,158.41.49Z"/><path class="cls-2" d="M114.06,49.12c21.67,48.77,42.83,97.76,64.16,146.66-42.7-.15-85.4.13-128.1-.13Q82.58,122.6,114.06,49.12Z"/><path class="cls-2" d="M24.24,256.45c60-.28,119.93-.11,179.91-.08,6.49,15.27,13.76,30.21,19.93,45.61Q114,301.83,3.83,301.93C10.7,286.81,17.81,271.78,24.24,256.45Z"/><path class="cls-3" d="M27.24,321.26v33.46a8.06,8.06,0,0,1-2.25,6A8.2,8.2,0,0,1,19,363H8.29a8.2,8.2,0,0,1-6-2.22,8.06,8.06,0,0,1-2.25-6v-7.37H5.53v6.91a3.59,3.59,0,0,0,.92,2.59,3.28,3.28,0,0,0,2.53,1h9.28a3.29,3.29,0,0,0,2.53-1,3.63,3.63,0,0,0,.92-2.59v-33Z"/><path class="cls-3" d="M40.94,331.63v23a3.81,3.81,0,0,0,1,2.65,3.25,3.25,0,0,0,2.51,1h1.9a11.73,11.73,0,0,0,6.05-1.73l2.47-1.44V331.63h5.24v31.1H54.82v-4.21l-2.47,1.9A10.31,10.31,0,0,1,46,363H43.77a7.63,7.63,0,0,1-8.07-8.07V331.63Z"/><path class="cls-3" d="M85.52,340.78v-1.61a3.7,3.7,0,0,0-.81-2.53,2.9,2.9,0,0,0-2.3-.92H76a2.93,2.93,0,0,0-2.31.92,3.74,3.74,0,0,0-.8,2.53V341a2.26,2.26,0,0,0,.69,1.84,5.53,5.53,0,0,0,2.3.92l8.87,1.44a9.3,9.3,0,0,1,5.1,2.19,6,6,0,0,1,1.64,4.49v3.4a7.48,7.48,0,0,1-2.1,5.58A7.65,7.65,0,0,1,83.73,363H74.86a7.16,7.16,0,0,1-7.66-7.66v-2.25h5.19v2c0,2.3,1,3.45,3.11,3.45h7.66q3,0,3-3.45v-2.65a2.25,2.25,0,0,0-.66-1.82,5.55,5.55,0,0,0-2.28-.89l-8.86-1.44a9.23,9.23,0,0,1-5.1-2.19,6,6,0,0,1-1.64-4.49v-2.53a7.14,7.14,0,0,1,7.66-7.66H83a7.67,7.67,0,0,1,5.62,2.07,7.5,7.5,0,0,1,2.1,5.59v1.72Z"/><path class="cls-3" d="M105.9,336v18.54a3.76,3.76,0,0,0,.92,2.62,3.21,3.21,0,0,0,2.48,1h6.28v4.55h-6.85a7.63,7.63,0,0,1-8.07-8.07V336h-5.3v-4.38h5.36V321.26h5.13v10.37h9.73V336Z"/><path class="cls-3" d="M163.6,362.73,151.28,342.4l-7.66,9.21v11.12h-5.53V321.26h5.53v23l18.55-23h6.68l-14,16.82,15.09,24.65Z"/><path class="cls-3" d="M179.21,348.56v6.28a3.89,3.89,0,0,0,.92,2.65,3.16,3.16,0,0,0,2.48,1h7.2a3.14,3.14,0,0,0,2.47-1,3.84,3.84,0,0,0,.92-2.65v-1.9h5.25v1.95a7.63,7.63,0,0,1-8.07,8.07H182a7.63,7.63,0,0,1-8.06-8.07V339.46A7.62,7.62,0,0,1,182,331.4h8.35a7.63,7.63,0,0,1,8.07,8.06v9.1Zm10.6-12.73h-7.2a3.16,3.16,0,0,0-2.48,1,3.85,3.85,0,0,0-.92,2.65v5h14v-5a3.8,3.8,0,0,0-.92-2.65A3.14,3.14,0,0,0,189.81,335.83Z"/><path class="cls-3" d="M210.31,348.56v6.28a3.84,3.84,0,0,0,.92,2.65,3.14,3.14,0,0,0,2.48,1h7.19a3.14,3.14,0,0,0,2.48-1,3.89,3.89,0,0,0,.92-2.65v-1.9h5.24v1.95a7.61,7.61,0,0,1-8.06,8.07h-8.35a7.61,7.61,0,0,1-8.06-8.07V339.46a7.61,7.61,0,0,1,8.06-8.06h8.35a7.61,7.61,0,0,1,8.06,8.06v9.1Zm10.59-12.73h-7.19a3.15,3.15,0,0,0-2.48,1,3.8,3.8,0,0,0-.92,2.65v5h14v-5a3.85,3.85,0,0,0-.92-2.65A3.15,3.15,0,0,0,220.9,335.83Z"/><path class="cls-3" d="M251.08,331.4H254a7.62,7.62,0,0,1,8.06,8.06v15.43A7.63,7.63,0,0,1,254,363h-2.88a10.31,10.31,0,0,1-6.33-2.54l-2.48-1.9v15.21H237v-42.1h5.24v4.2l2.48-1.9A10.29,10.29,0,0,1,251.08,331.4Zm5.64,23.21V339.75a3.73,3.73,0,0,0-1-2.65,3.22,3.22,0,0,0-2.5-1h-2.48a11.55,11.55,0,0,0-6,1.73l-2.48,1.44v15.89l2.48,1.44a11.46,11.46,0,0,0,6,1.73h2.48a3.21,3.21,0,0,0,2.5-1A3.76,3.76,0,0,0,256.72,354.61Z"/><path class="cls-3" d="M305.1,363h-12a8.24,8.24,0,0,1-6.05-2.22,8.1,8.1,0,0,1-2.24-6V329.27a8.1,8.1,0,0,1,2.24-6,8.24,8.24,0,0,1,6.05-2.22h12a7.66,7.66,0,0,1,8.23,8.24v5.18H307.8v-4.72a3.59,3.59,0,0,0-.92-2.59,3.2,3.2,0,0,0-2.47-1H293.75a3.28,3.28,0,0,0-2.53,1,3.59,3.59,0,0,0-.92,2.59v24.53a3.59,3.59,0,0,0,.92,2.59,3.28,3.28,0,0,0,2.53,1h10.66a3.2,3.2,0,0,0,2.47-1,3.59,3.59,0,0,0,.92-2.59v-4.72h5.53v5.18A7.66,7.66,0,0,1,305.1,363Z"/><path class="cls-3" d="M328.3,331.4H337a7.61,7.61,0,0,1,8.06,8.06v15.43A7.61,7.61,0,0,1,337,363h-8.7a7.63,7.63,0,0,1-8.06-8.07V339.46a7.62,7.62,0,0,1,8.06-8.06Zm11.52,23.44V339.52a3.76,3.76,0,0,0-.92-2.59,3.15,3.15,0,0,0-2.48-1h-7.54a3.16,3.16,0,0,0-2.48,1,3.76,3.76,0,0,0-.92,2.59v15.32a3.78,3.78,0,0,0,.92,2.59,3.16,3.16,0,0,0,2.48,1h7.54a3.14,3.14,0,0,0,2.48-1A3.78,3.78,0,0,0,339.82,354.84Z"/><path class="cls-3" d="M376.85,362.73h-5.3v-4.21l-2.42,1.9A10.65,10.65,0,0,1,362.8,363h-2.88a7.61,7.61,0,0,1-8.06-8.07V339.46a7.61,7.61,0,0,1,8.06-8.06h2.88a10.63,10.63,0,0,1,6.33,2.53l2.42,1.9v-16.3h5.3Zm-5.3-23.5-2.42-1.44a11.86,11.86,0,0,0-6.1-1.73h-2.48a3.24,3.24,0,0,0-2.5,1,3.73,3.73,0,0,0-.95,2.65v14.86a3.76,3.76,0,0,0,.95,2.65,3.23,3.23,0,0,0,2.5,1H363a11.77,11.77,0,0,0,6.1-1.73l2.42-1.44Z"/><path class="cls-3" d="M409.44,362.73h-5.29v-4.21l-2.42,1.9a10.68,10.68,0,0,1-6.34,2.54h-2.88a7.63,7.63,0,0,1-8.06-8.07V339.46a7.62,7.62,0,0,1,8.06-8.06h2.88a10.66,10.66,0,0,1,6.34,2.53l2.42,1.9v-16.3h5.29Zm-5.29-23.5-2.42-1.44a11.93,11.93,0,0,0-6.11-1.73h-2.47a3.26,3.26,0,0,0-2.51,1,3.78,3.78,0,0,0-.95,2.65v14.86a3.81,3.81,0,0,0,.95,2.65,3.25,3.25,0,0,0,2.51,1h2.47a11.83,11.83,0,0,0,6.11-1.73l2.42-1.44Z"/><path class="cls-3" d="M423.67,325.41h-5.82v-5.88h5.82Zm-.29,6.22v31.1h-5.24v-31.1Z"/><path class="cls-3" d="M451.25,362.73v-23a3.73,3.73,0,0,0-.95-2.65,3.24,3.24,0,0,0-2.5-1h-1.9a11.61,11.61,0,0,0-6,1.73l-2.48,1.44v23.5h-5.24v-31.1h5.24v4.2l2.48-1.9a10.3,10.3,0,0,1,6.34-2.53h2.24a7.61,7.61,0,0,1,8.06,8.06v23.27Z"/><path class="cls-3" d="M488.8,331.63v34.26a7.63,7.63,0,0,1-8.06,8.07h-8a7.63,7.63,0,0,1-8.06-8.07V365h5.13v.81a3.89,3.89,0,0,0,.95,2.76,3.37,3.37,0,0,0,2.62,1h6.56a3.38,3.38,0,0,0,2.62-1,3.89,3.89,0,0,0,.95-2.76v-9.22l-2.42,1.9a10.65,10.65,0,0,1-6.33,2.54h-2.88a7.61,7.61,0,0,1-8.06-8.07V339.46a7.61,7.61,0,0,1,8.06-8.06h2.88a10.63,10.63,0,0,1,6.33,2.53l2.42,1.9v-4.2Zm-5.3,7.6-2.42-1.44a11.89,11.89,0,0,0-6.1-1.73H472.5a3.24,3.24,0,0,0-2.5,1,3.73,3.73,0,0,0-.95,2.65v12.9a3.81,3.81,0,0,0,.92,2.68,3.26,3.26,0,0,0,2.53,1H475a12.53,12.53,0,0,0,6.1-1.67l2.42-1.49Z"/><path class="cls-3" d="M77.55,211.88H69.4v6.31h8.94l-.23,1.46H67.77V203.48H78v1.46H69.4v5.48h8.15Z"/><path class="cls-3" d="M89.48,217.28a15.44,15.44,0,0,0,.16,2.37H88.16A6.57,6.57,0,0,1,88,218c-.4.82-1.38,2-3.72,2-2.72,0-3.89-1.77-3.89-3.53,0-2.58,2-3.76,5.49-3.76h2.11v-1.1c0-1.1-.34-2.52-2.78-2.52-2.17,0-2.51,1.11-2.74,2H80.9c.14-1.43,1-3.36,4.3-3.35,2.75,0,4.28,1.14,4.28,3.74ZM88,213.82h-2.1c-2.47,0-3.91.67-3.91,2.5a2.25,2.25,0,0,0,2.49,2.3c3.1,0,3.52-2.06,3.52-4.4Z"/><path class="cls-3" d="M91.38,208h2.1v-3.54H95V208h2.68v1.35H95v7.23c0,1.23.28,1.9,1.36,1.9a4.49,4.49,0,0,0,1.13-.12v1.25a4.76,4.76,0,0,1-1.58.21c-1.64,0-2.46-.83-2.46-2.73v-7.74h-2.1Z"/><path class="cls-3" d="M99.18,222.3a15.53,15.53,0,0,0,1.63-5.82h1.57a14.07,14.07,0,0,1-1.88,5.82Z"/><path class="cls-3" d="M120.1,216.16a4.55,4.55,0,0,1-4.65,3.77c-3,0-5.09-2.23-5.09-6.06,0-3.24,1.78-6.15,5.23-6.15a4.24,4.24,0,0,1,4.51,3.8h-1.55a2.89,2.89,0,0,0-3-2.44c-2.29,0-3.58,1.95-3.58,4.74s1.23,4.75,3.48,4.75a3,3,0,0,0,3.08-2.41Z"/><path class="cls-3" d="M132.51,213.8c0,3.29-1.86,6.13-5.37,6.13-3.24,0-5.22-2.59-5.22-6.1s1.9-6.11,5.34-6.11C130.42,207.72,132.51,210.14,132.51,213.8Zm-9,0c0,2.68,1.4,4.74,3.7,4.74s3.66-1.93,3.66-4.74-1.31-4.74-3.71-4.74S123.53,211.09,123.53,213.82Z"/><path class="cls-3" d="M144.72,202.61v13.71c0,1.11,0,2.18,0,3.33h-1.49c-.05-.29-.08-1.3-.08-1.82-.58,1.33-1.83,2.1-3.8,2.1-3,0-4.85-2.45-4.85-6s2-6.23,5.18-6.23c2.21,0,3.14.92,3.47,1.63v-6.74Zm-8.57,11.29c0,3,1.51,4.65,3.43,4.65,2.92,0,3.65-2.07,3.65-5s-.64-4.5-3.46-4.5C137.58,209.09,136.15,210.83,136.15,213.9Z"/><path class="cls-3" d="M149,214.06c0,2.72,1.39,4.5,3.51,4.5a3,3,0,0,0,3.11-2h1.57a4.59,4.59,0,0,1-4.73,3.38c-3.6,0-5-3-5-6,0-3.4,1.7-6.21,5.16-6.21,3.67,0,4.85,3.06,4.85,5.38,0,.34,0,.66,0,1Zm6.85-1.2c0-2.13-1.14-3.82-3.3-3.82s-3.24,1.56-3.48,3.82Z"/><path class="cls-3" d="M158.88,222.3a15.53,15.53,0,0,0,1.63-5.82h1.57a14.07,14.07,0,0,1-1.88,5.82Z"/><path class="cls-3" d="M42,244.18a2.89,2.89,0,0,0,3.11,2.24c1.91,0,2.67-.86,2.67-2s-.55-1.8-3-2.39c-3.16-.77-3.88-1.72-3.88-3.28s1.21-3.18,4-3.18,4.05,1.67,4.22,3.31H47.64a2.54,2.54,0,0,0-2.77-2c-1.84,0-2.38.91-2.38,1.76s.52,1.47,2.75,2c3.4.81,4.17,1.93,4.17,3.67,0,2.09-1.68,3.48-4.34,3.48-2.82,0-4.3-1.46-4.62-3.55Z"/><path class="cls-3" d="M52,247.45v-17h1.55v17Z"/><path class="cls-3" d="M57.87,241.86c0,2.72,1.39,4.5,3.51,4.5a3,3,0,0,0,3.11-2h1.57a4.6,4.6,0,0,1-4.74,3.38c-3.59,0-5-3-5-6,0-3.39,1.69-6.21,5.16-6.21,3.67,0,4.85,3.06,4.85,5.38,0,.34,0,.66,0,1Zm6.85-1.2c0-2.13-1.15-3.82-3.3-3.82s-3.25,1.56-3.48,3.82Z"/><path class="cls-3" d="M69.87,241.86c0,2.72,1.39,4.5,3.51,4.5a3,3,0,0,0,3.11-2h1.57a4.59,4.59,0,0,1-4.73,3.38c-3.6,0-5-3-5-6,0-3.39,1.69-6.21,5.16-6.21,3.67,0,4.85,3.06,4.85,5.38,0,.34,0,.66,0,1Zm6.85-1.2c0-2.13-1.15-3.82-3.3-3.82s-3.25,1.56-3.48,3.82Z"/><path class="cls-3" d="M82.59,245.86v6.21H81V238.65c0-1,0-2,0-2.86h1.51c0,.42.06,1.12.06,2a4.15,4.15,0,0,1,4-2.25c2.73,0,4.66,2.28,4.66,5.8,0,4.18-2.24,6.41-5.06,6.41A3.71,3.71,0,0,1,82.59,245.86Zm7-4.48c0-2.6-1.22-4.47-3.38-4.47-2.64,0-3.71,1.66-3.71,4.68s.85,4.77,3.55,4.77C88.35,246.36,89.6,244.44,89.6,241.38Z"/><path class="cls-3" d="M113.87,237.12l-4.07,6.16c-1.94,2.94-3.33,4.4-6.1,4.4a4.19,4.19,0,0,1-4.37-4.18c0-2,1-3.51,4.35-5.27,2.23-1.36,3.24-2,3.24-3.54a2.26,2.26,0,1,0-4.51.08c0,1,.73,2,2,3.2l9.63,9.48h-2.2l-8.7-8.58c-1.41-1.35-2.29-2.44-2.29-4.05a3.66,3.66,0,0,1,3.86-3.77,3.55,3.55,0,0,1,3.69,3.63c0,1.67-1,2.73-3.86,4.41-3,1.67-3.61,2.81-3.61,4.26a2.91,2.91,0,0,0,2.8,2.9c1.85,0,3-.69,5-3.9l3.34-5.23Z"/><path class="cls-3" d="M122.84,239c0-1.81,0-2.68,0-3.17h1.53c0,.36,0,1.18,0,2.51a4.26,4.26,0,0,1,4-2.78v1.6c-2.41.12-4,1.6-4,4.45v5.88h-1.55Z"/><path class="cls-3" d="M131.15,241.86c0,2.72,1.39,4.5,3.51,4.5a3,3,0,0,0,3.1-2h1.58a4.6,4.6,0,0,1-4.74,3.38c-3.6,0-5-3-5-6,0-3.39,1.7-6.21,5.17-6.21,3.66,0,4.85,3.06,4.85,5.38,0,.34,0,.66,0,1Zm6.85-1.2c0-2.13-1.15-3.82-3.3-3.82s-3.25,1.56-3.48,3.82Z"/><path class="cls-3" d="M143.87,245.86v6.21h-1.55V238.65c0-1,0-2,0-2.86h1.51c.05.42.06,1.12.06,2a4.15,4.15,0,0,1,4-2.25c2.72,0,4.66,2.28,4.66,5.8,0,4.18-2.25,6.41-5.07,6.41A3.71,3.71,0,0,1,143.87,245.86Zm7-4.48c0-2.6-1.22-4.47-3.39-4.47-2.63,0-3.7,1.66-3.7,4.68s.85,4.77,3.54,4.77C149.62,246.36,150.88,244.44,150.88,241.38Z"/><path class="cls-3" d="M156.1,241.86c0,2.72,1.39,4.5,3.51,4.5a3,3,0,0,0,3.11-2h1.57a4.6,4.6,0,0,1-4.74,3.38c-3.6,0-5-3-5-6,0-3.39,1.7-6.21,5.17-6.21,3.67,0,4.85,3.06,4.85,5.38,0,.34,0,.66,0,1Zm6.85-1.2c0-2.13-1.15-3.82-3.3-3.82s-3.25,1.56-3.48,3.82Z"/><path class="cls-3" d="M175.58,245.09a15.39,15.39,0,0,0,.16,2.36h-1.48a6.57,6.57,0,0,1-.21-1.67c-.4.82-1.38,1.95-3.72,1.95-2.72,0-3.89-1.77-3.89-3.53,0-2.58,2-3.76,5.49-3.76H174v-1.1c0-1.1-.34-2.52-2.78-2.52-2.16,0-2.51,1.11-2.74,2.05H167c.14-1.43,1-3.36,4.31-3.35,2.74,0,4.27,1.14,4.27,3.74Zm-1.52-3.47H172c-2.47,0-3.91.67-3.91,2.51a2.25,2.25,0,0,0,2.49,2.29c3.1,0,3.52-2.06,3.52-4.4Z"/><path class="cls-3" d="M177.48,235.79h2.1v-3.54h1.55v3.54h2.68v1.35h-2.68v7.23c0,1.23.28,1.9,1.36,1.9a4.49,4.49,0,0,0,1.13-.12v1.25a4.76,4.76,0,0,1-1.58.21c-1.64,0-2.46-.83-2.46-2.73v-7.74h-2.1Z"/><path class="cls-3" d="M186,247.45v-3.18h1.6v3.18Z"/></svg>